<svg xmlns="http://www.w3.org/2000/svg" width="240" height="240" viewBox="0 0 240 240">
  <rect width="100%" height="100%" rx="24" fill="#0b1226"/>
  <g transform="translate(24,24) scale(0.82)" fill="#ffffff">
    <path d="M120 18c-57 0-103 46-103 103 0 45 29 83 69 97 5 1 7-2 7-5v-18c-28 6-34-13-34-13-5-12-12-15-12-15-10-7 1-7 1-7 11 1 17 11 17 11 10 17 26 12 32 9 1-7 4-12 7-15-22-3-45-11-45-49 0-11 4-20 11-27-1-3-5-14 1-29 0 0 9-3 29 11 8-2 17-3 25-3 8 0 17 1 25 3 20-14 29-11 29-11 6 15 2 26 1 29 7 7 11 16 11 27 0 38-23 46-45 49 4 3 8 10 8 21v30c0 3 2 6 7 5 40-14 69-52 69-97 0-57-46-103-103-103z"/>
  </g>
</svg>
